<?xml version="1.0" standalone="no"?>
<!DOCTYPE svg PUBLIC "-//W3C//DTD SVG 20010904//EN"
 "http://www.w3.org/TR/2001/REC-SVG-20010904/DTD/svg10.dtd">
<svg version="1.0" xmlns="http://www.w3.org/2000/svg"
 width="400.000000pt" height="400.000000pt" viewBox="0 0 400.000000 400.000000"
 preserveAspectRatio="xMidYMid meet">
<metadata>
Created by potrace 1.14, written by Peter Selinger 2001-2017
</metadata>
<g transform="translate(0.000000,400.000000) scale(0.100000,-0.100000)"
fill="#000000" stroke="none">
<path d="M2797 3594 c-1 -1 -27 -5 -57 -8 -30 -3 -72 -10 -93 -15 -58 -14
-197 -72 -197 -82 0 -5 -4 -8 -9 -6 -5 1 -37 -19 -72 -45 -73 -53 -582 -557
-640 -633 -66 -88 -129 -223 -145 -312 -7 -36 -8 -38 -79 -52 -33 -7 -90 -26
-128 -42 -133 -56 -196 -107 -480 -391 -337 -337 -369 -376 -425 -518 -51
-131 -71 -310 -48 -440 11 -68 75 -241 96 -260 3 -3 17 -23 31 -45 32 -49 98
-118 164 -171 163 -131 401 -186 619 -144 167 33 289 96 415 215 140 133 522
523 554 565 64 88 125 224 142 319 8 47 8 47 62 60 56 14 147 48 183 70 106
63 167 116 420 368 157 156 300 304 317 328 63 85 133 234 148 315 33 178 16
351 -48 489 -105 227 -326 395 -562 426 -45 7 -164 13 -168 9z m120 -327 c51
-7 137 -42 183 -76 111 -82 167 -199 168 -347 0 -96 -28 -188 -81 -268 -30
-43 -440 -464 -551 -564 -49 -44 -126 -90 -163 -96 -7 -1 -16 -5 -19 -9 -14
-14 -21 -6 -34 36 -31 93 -104 209 -183 289 -82 84 -159 134 -272 178 -33 13
-61 24 -63 25 -7 5 42 112 70 154 41 60 539 558 598 597 60 40 146 74 206 80
27 3 50 7 52 8 3 3 10 3 89 -7z m-1318 -1192 c32 -90 60 -143 112 -211 95
-126 212 -212 359 -263 36 -12 54 -24 51 -32 -2 -8 -4 -19 -5 -25 -1 -6 -17
-42 -35 -80 -30 -61 -66 -101 -310 -345 -152 -152 -296 -289 -321 -304 -41
-26 -129 -61 -175 -71 -29 -6 -146 -6 -172 1 -13 3 -33 7 -45 10 -12 2 -46 16
-75 31 -143 70 -237 216 -247 384 -3 54 19 177 35 196 6 8 9 14 5 14 -4 0 10
26 30 58 43 69 536 568 610 617 52 35 142 76 157 72 5 -2 17 -25 26 -52z"/>
</g>
</svg>
